# xmcd
#
# Track frame offsets:
#	150
#	19838
#	39718
#	58740
#	75417
#	94216
#	112735
#	128834
#	144052
#	159812
#	179528
#	196352
#	215476
#	231379
#	249533
#	264533
#	281253
#	321299
#	338981
#
# Disc length: 4728 seconds
#
# Revision: 0
# Processed by: cddbd v1.4PL0 Copyright (c) Steve Scherf et al.
# Submitted via: EasyCDDAExtractor 4.5.0.2
#
DISCID=09127613
DTITLE=Westlife - World Of My Own
DYEAR=2001
DGENRE=Pop
TTITLE0=Queen Of My Heart ( Radio Edit )
TTITLE1=Bop Bop Baby
TTITLE2=I Cry
TTITLE3=Uptown Girl ( Radio Edit )
TTITLE4=Why Do I Love You
TTITLE5=I Wanna Grow Old With You
TTITLE6=When You're Looking Like That ( Single Remix )
TTITLE7=Evergreen
TTITLE8=World Of Our Own
TTITLE9=To Be Loved
TTITLE10=Drive
TTITLE11=If Your Heart's Not In It
TTITLE12=When You Come Around
TTITLE13=Don't Say It's Top Late
TTITLE14=Don't Let Me Go
TTITLE15=Walk Away
TTITLE16=Love Crime
TTITLE17=Imaginary Diva
TTITLE18=Angel
EXTD=
EXTT0=
EXTT1=
EXTT2=
EXTT3=
EXTT4=
EXTT5=
EXTT6=
EXTT7=
EXTT8=
EXTT9=
EXTT10=
EXTT11=
EXTT12=
EXTT13=
EXTT14=
EXTT15=
EXTT16=
EXTT17=
EXTT18=
PLAYORDER=
